<?xml version="1.0" encoding="UTF-8" standalone="no"?>
<svg xmlns="http://www.w3.org/2000/svg" viewBox="0 0 283.5 348.3">
<style type="text/css">
	.st0{fill:#f04f0a;}
</style>
<g>
	<path class="st0" d="M135.2,0L135.2,0L22.9,112.2c-30.6,30.6-30.6,80.1,0,110.7l0,0l112.2-112.2C165.7,80.1,165.7,30.6,135.2,0z"/>
	<path class="st0" d="M163.1,208.1c-3.6-4.9-4.9-9.4-4.9-9.4s0.7-1.5,2-4.1l-22.9-0.4c0,0,17.8-34.8,44.4-33.8l0,0
		c16.3-20.9,40.6-42.5,71.1-42.7C222.3,87.5,173,87.6,142.5,118L30.3,230.3l0,0c30.6,30.6,80.1,30.6,110.7,0L163.1,208.1z"/>
	<path class="st0" d="M260.9,125.7c-0.2,30.6-21.9,54.8-42.7,71.1l0,0c1,26.6-33.8,44.4-33.8,44.4l-0.4-22.9v0c-2.6,1.3-4.1,2-4.1,2
		s-4.5-1.3-9.4-4.9l-22.1,22.1c-30.6,30.6-30.6,80.1,0,110.7l112.2-112.2C291,205.6,291.1,156.3,260.9,125.7z"/>
	<circle class="st0" cx="224.6" cy="156.1" r="11.1"/>
</g>
</svg>
